<mxfile host="app.diagrams.net" modified="2024-01-12T19:14:38.610Z" agent="Mozilla/5.0 (Windows NT 10.0; Win64; x64) AppleWebKit/537.36 (KHTML, like Gecko) Chrome/120.0.0.0 Safari/537.36" version="22.1.18" etag="jrqqdWVp8lkufPdOBnvM" type="github">
  <diagram name="第 1 页" id="cC_8CLEbr-v7J0dyYEAU">
    <mxGraphModel>
      <root>
        <mxCell id="0" />
        <mxCell id="1" parent="0" />
      </root>
    </mxGraphModel>
  </diagram>
</mxfile>
